<svg viewBox="0 0 75 83" fill="none" xmlns="http://www.w3.org/2000/svg">
<path fill-rule="evenodd" clip-rule="evenodd" d="M36.8449 2.9874C16.6424 2.9874 0.265137 20.2254 0.265137 41.4899C0.265137 62.7542 16.6424 79.9921 36.8449 79.9921C57.0471 79.9921 73.4243 62.7542 73.4243 41.4899C73.4243 20.2254 57.0471 2.9874 36.8449 2.9874Z" fill="#ED3237"/>
<path d="M74.4732 41.4999C74.4732 18.5865 57.7965 0 37.2367 0C16.6767 0 0 18.5865 0 41.4999C0 64.4143 16.6767 83 37.2367 83C57.7965 83 74.4732 64.4143 74.4732 41.4999ZM70.8826 41.4999C70.8826 62.2047 55.8142 78.9982 37.2367 78.9982C18.6595 78.9982 3.59085 62.2047 3.59085 41.4999C3.59085 20.7958 18.6595 4.00211 37.2367 4.00211C55.8142 4.00211 70.8826 20.7958 70.8826 41.4999Z" fill="#3E4095"/>
<path d="M23.2095 10.9831C23.2095 19.3614 17.0442 26.1572 9.44287 26.1572C9.44287 36.2732 9.44287 46.3896 9.44287 56.5054C17.0442 56.5054 23.2095 63.3015 23.2095 71.6796C32.4747 71.6796 41.7397 71.6796 51.0049 71.6796C51.0049 63.3015 57.1704 56.5054 64.7715 56.5054C64.7715 46.3896 64.7715 36.2732 64.7715 26.1572C57.1704 26.1572 51.0049 19.3614 51.0049 10.9831C41.7397 10.9831 32.4747 10.9831 23.2095 10.9831Z" fill="#00AFEF"/>
<path d="M38.2772 32.01C38.2772 32.2421 38.2378 32.4885 38.1589 32.7496C37.7905 33.0976 37.1067 33.4598 36.1072 33.837C35.3442 34.0978 34.5947 34.3586 33.8581 34.6199C35.4625 40.3889 36.2651 44.6949 36.2651 47.5359C36.2651 50.2904 35.4496 52.4648 33.8187 54.0597C32.5034 55.3353 30.5044 56.3498 27.8214 57.1043C25.875 57.655 24.3099 57.9305 23.1262 57.9305C21.6269 57.9305 20.0748 57.4882 18.4703 56.6038C16.8658 55.7195 15.669 54.5959 14.8798 53.2335C14.2748 52.2183 13.9722 51.6676 13.9722 51.5809C13.9722 51.3487 14.3799 50.6963 15.1956 49.6237C16.0107 48.5511 16.5304 47.942 16.754 47.7973C16.9775 47.6522 17.4774 47.4059 18.2533 47.0581C19.0293 46.7097 19.496 46.5358 19.6541 46.5358C19.6541 46.5358 20.4955 47.3333 22.1793 48.9279C23.8626 50.5226 25.0725 51.3199 25.809 51.3199C27.0716 51.3199 27.7029 50.189 27.7029 47.9275C27.7029 46.3039 27.4662 44.3906 26.9927 42.187C26.5456 40.331 26.0851 38.4614 25.612 36.5766C25.1648 36.6057 24.231 36.9824 22.8104 37.7073C22.4684 37.6204 21.9227 37.2655 21.1731 36.6418C20.4233 36.0182 19.9499 35.5331 19.7527 35.1849C19.5553 34.8372 19.2528 33.8299 18.8451 32.1624C18.4373 30.4951 18.2204 29.43 18.194 28.9662L18.5491 28.4006C18.9174 28.2266 21.7058 27.5958 26.9138 26.5087C32.122 25.4213 34.8971 24.8775 35.2391 24.8775C35.4496 24.8775 35.923 25.291 36.6596 26.1169C37.396 26.9436 37.8169 27.5018 37.922 27.7915C38.1589 28.4296 38.2772 29.8354 38.2772 32.01ZM37.212 31.6625V30.7055C37.212 29.5457 37.1856 28.8786 37.1331 28.7049C36.9225 28.1833 36.2782 27.3568 35.1996 26.2261L35.4363 27.3132C35.5153 28.0379 35.6733 29.0674 35.9098 30.4011C36.173 30.6912 36.6071 31.1116 37.212 31.6625ZM35.3181 47.6089C35.3181 46.7676 34.9957 44.5135 34.3513 40.8529C33.7067 37.1929 33.2532 35.127 32.9901 34.663C32.8059 34.3732 32.5826 34.1557 32.3194 34.011C32.0565 33.8661 31.7934 33.7062 31.53 33.5323C32.0299 34.9819 32.635 37.7005 33.3453 41.687C34.0819 45.7529 34.45 48.471 34.45 49.8341C34.45 50.6456 34.1869 51.6967 33.6609 52.9726C34.7657 51.5518 35.3181 49.7612 35.3181 47.6089ZM34.7985 30.5313L33.9303 25.994L19.496 29.3498V29.6545C19.496 30.3216 19.9565 31.8507 20.8771 34.2281H21.1137C23.6129 33.271 24.9937 32.7932 25.2569 32.7932C26.0719 32.7932 26.9531 35.0548 27.9001 39.5773C28.6895 43.5205 29.0838 46.2893 29.0838 47.8844C29.0838 49.5658 28.604 50.8343 27.6439 51.6894C26.6837 52.545 25.4012 52.9726 23.7968 52.9726C22.7184 52.9726 21.5741 52.4941 20.3643 51.5375C19.3646 50.6963 18.3651 49.8558 17.3656 49.0146C17.1552 49.1018 16.8132 49.4931 16.3397 50.189C16.0238 50.6818 15.6953 51.1603 15.3533 51.6243C16.8789 54.9005 19.5618 56.5386 23.4023 56.5386C24.3754 56.5386 25.8222 56.3064 27.7425 55.843C29.5309 55.4372 30.8595 54.8713 31.7274 54.1465C32.8586 53.1901 33.4242 51.8418 33.4242 50.1022C33.4242 48.3917 33.1085 46.0284 32.4772 43.0132C31.951 40.6649 31.425 38.3164 30.8988 35.9678C30.8726 35.7649 30.7018 35.0836 30.386 33.9238C30.0964 32.8511 29.952 32.2859 29.952 32.2275C29.952 31.8507 30.6623 31.4881 32.0825 31.1406C32.9704 30.9376 33.8778 30.7343 34.7985 30.5313ZM60.3724 37.49C60.3724 39.5197 59.8465 41.3605 58.7942 43.0132C57.7422 44.666 56.3611 45.7817 54.6516 46.362C53.757 46.7097 52.4418 47.2028 50.7058 47.8407C50.6796 47.9275 50.6665 48.029 50.6665 48.145C50.6665 48.9567 50.6993 50.189 50.7651 51.8418C50.8308 53.4945 50.8637 54.7265 50.8637 55.5384C50.8637 56.6403 50.6139 57.2635 50.114 57.4084C49.772 57.5244 49.2722 57.5751 48.6147 57.5606C47.957 57.5461 47.4836 57.5678 47.1943 57.6257C47.0362 57.655 46.5364 57.7996 45.695 58.0609C45.0634 58.2636 44.577 58.3653 44.2349 58.3653C43.9193 58.3653 43.459 57.9448 42.8539 57.1043C42.3279 56.3788 41.9729 55.7848 41.7887 55.3208C41.473 54.5092 41.0919 50.2178 40.6448 42.4479C40.2236 35.3445 40.0131 30.5897 40.0131 28.1833C40.0131 27.603 40.0788 27.2117 40.2106 27.009C40.5261 26.5738 41.7625 26.1973 43.9193 25.8779C45.6292 25.6461 47.0101 25.5303 48.0624 25.5303C51.9816 25.5303 54.9407 26.3707 56.9397 28.0525C59.2284 29.9951 60.3724 33.141 60.3724 37.49ZM58.2025 42.013L57.2949 41.9261L56.8214 42.013C55.6905 42.9698 54.4408 43.7235 53.0731 44.2742C52.284 44.5643 50.9162 44.9416 48.9697 45.4055C49.5748 46.0718 49.9824 46.623 50.193 47.0581C51.6659 46.4777 53.1259 45.9126 54.5727 45.3616C56.1246 44.6949 57.3345 43.5784 58.2025 42.013ZM58.8731 34.2281C58.8731 32.4017 58.2157 30.8506 56.9003 29.5748C55.8219 28.4731 54.4015 27.6609 52.6393 27.1395C51.3239 26.7625 50.4952 26.5738 50.1534 26.5738C45.971 26.5738 42.9198 26.922 40.9995 27.6176C40.9995 35.3879 41.5786 44.3326 42.7359 54.4513C44.4717 54.1029 46.2342 53.8421 48.0228 53.6687V53.3637C48.0228 52.7262 47.9832 51.7694 47.9043 50.4938C47.8256 49.2179 47.786 48.2613 47.786 47.6234C47.786 47.3333 47.7203 46.9128 47.5889 46.362C47.4572 45.8108 47.3915 45.4055 47.3915 45.1443C47.3915 44.6803 47.7992 44.3761 48.6147 44.2309C49.1671 44.173 49.7195 44.1151 50.2719 44.0569C51.5079 43.825 52.7839 43.4193 54.0991 42.8392C55.3352 42.2882 56.44 41.0996 57.4133 39.2732C58.3864 37.4462 58.8731 35.7649 58.8731 34.2281ZM49.2854 56.423C48.6279 55.3428 48.2727 54.7989 48.2202 54.7989C47.8517 54.7989 46.1289 55.0382 43.0515 55.5239C43.9193 56.6326 44.3535 57.1913 44.3535 57.1913C44.6955 57.1913 45.4187 57.0533 46.5235 56.7849C47.6284 56.5168 48.549 56.394 49.2854 56.423ZM53.7834 34.2714C53.7834 35.8083 53.0204 37.0987 51.4949 38.1422C50.1534 39.0123 48.7329 39.4763 47.2336 39.5342L46.7602 39.0557C46.7602 39.0268 46.7602 38.5772 46.7602 37.7073C46.7602 37.0696 46.6813 36.1056 46.5235 34.8153C46.3656 33.5248 46.2867 32.5612 46.2867 31.9233C46.2867 31.3434 46.7602 30.9953 47.7074 30.8794C47.8913 30.8506 48.6015 30.836 49.8377 30.836C52.4681 30.836 53.7834 31.9812 53.7834 34.2714ZM52.8364 33.4453C52.6789 32.9813 52.3366 32.5902 51.8106 32.2711C51.291 31.9521 50.7782 31.7926 50.2719 31.7926C49.8442 31.7926 49.0947 31.9233 48.0228 32.1842C48.9565 33.1989 49.4104 33.7062 49.384 33.7062C49.5221 33.7062 49.6931 33.6338 49.9102 33.4889C50.068 33.4598 50.4163 33.4164 50.949 33.3585C51.4028 33.3006 51.7513 33.271 51.9946 33.271C52.2907 33.271 52.5668 33.3297 52.8364 33.4453ZM52.8364 34.8805L52.1658 34.3586C51.6398 34.3877 50.8372 34.3732 49.7589 34.3153C49.6799 34.5474 49.6405 34.8805 49.6405 35.3154C49.6405 35.6055 49.667 36.0182 49.7195 36.5549C49.772 37.0913 49.7982 37.5046 49.7982 37.7945C51.8238 36.9245 52.8364 35.9532 52.8364 34.8805Z" fill="#FEFEFE"/>
<path d="M35.4947 70.8913C35.6513 70.7195 35.7295 70.5043 35.7295 70.2459C35.7295 69.95 35.6121 69.6631 35.3771 69.3854C35.1423 69.1562 34.8766 69.0418 34.5807 69.0418C34.346 69.0418 34.1521 69.13 33.9999 69.3071C33.8475 69.4839 33.7714 69.6919 33.7714 69.9309C33.7714 70.2941 33.8845 70.5855 34.1108 70.8057C34.3286 71.0539 34.5851 71.1783 34.8811 71.1783C35.1332 71.1783 35.3379 71.0827 35.4947 70.8913ZM38.7448 71.2355C39.154 71.4459 39.4758 71.5962 39.711 71.6849C40.0413 71.8164 40.3419 71.8809 40.6117 71.8809C40.8727 71.8809 41.1206 71.8281 41.3557 71.723C41.5907 71.6203 41.8561 71.4363 42.1519 71.1783C42.5784 71.5891 42.9916 71.7947 43.392 71.7947C43.5833 71.7947 43.7641 71.7351 43.9338 71.6177C44.1035 71.5006 44.2538 71.3217 44.3841 71.0782C44.1928 71.3262 43.9098 71.4506 43.5358 71.4506C43.3094 71.4506 43.0852 71.4003 42.8632 71.3002C42.6415 71.1994 42.4174 71.0396 42.191 70.82C41.9214 71.0396 41.6754 71.1994 41.4533 71.3002C41.2318 71.4003 41.0162 71.4506 40.8073 71.4506C40.5899 71.4506 40.1374 71.2976 39.4498 70.9918C38.7623 70.6862 38.0964 70.5327 37.4526 70.5327C37.2697 70.4183 37.1199 70.2608 37.0022 70.0596C36.8849 69.8592 36.7651 69.6535 36.6434 69.4429C36.4345 69.166 36.2516 68.9413 36.0949 68.7695C35.8599 68.5016 35.6294 68.2533 35.403 68.0234C35.3596 67.9854 35.2986 67.9664 35.2204 67.9664C35.1509 67.9664 34.9203 68.0619 34.5285 68.2533C34.2154 68.4061 33.9019 68.5448 33.5887 68.6688C33.2145 68.7356 32.9295 68.8243 32.7336 68.9341C32.5379 69.0437 32.4398 69.1469 32.4398 69.2425C32.4398 69.3664 32.5401 69.4286 32.7403 69.4286C32.8709 69.4286 33.0188 69.3978 33.1839 69.3359C33.3493 69.2737 33.5234 69.166 33.7063 69.013C34.063 68.8602 34.3242 68.7597 34.4894 68.7118C34.7331 68.6641 34.9769 68.6114 35.2204 68.554C35.3161 68.6212 35.4837 68.9153 35.723 69.4336C35.9621 69.9546 36.0819 70.2963 36.0819 70.4561C36.0819 70.4755 36.0797 70.4922 36.0754 70.5065C36.0711 70.5208 36.0646 70.5327 36.0558 70.5424C35.9775 70.6644 35.8969 70.7888 35.8145 70.9104C35.7317 71.035 35.6642 71.1663 35.6121 71.3074C35.3596 71.3742 35.0813 71.4075 34.7765 71.4075C34.4462 71.4075 34.1543 71.3644 33.9019 71.2786C33.6497 71.1903 33.3755 71.0396 33.0796 70.82C32.8968 70.9918 32.6923 71.1329 32.466 71.2428C32.2399 71.3524 32.018 71.4075 31.8003 71.4075C31.6004 71.4075 31.3958 71.3598 31.1867 71.2643C30.9779 71.1689 30.7692 71.0207 30.5602 70.82C30.4036 71.0396 30.2337 71.1994 30.0512 71.3002C29.8684 71.4003 29.6813 71.4506 29.49 71.4506C29.1156 71.4506 28.8155 71.3262 28.5894 71.0782C28.7893 71.5554 29.1156 71.7947 29.568 71.7947C29.9075 71.7947 30.2253 71.6084 30.5211 71.2355C30.7299 71.4028 30.9455 71.5321 31.1671 71.6203C31.3891 71.7087 31.5917 71.7518 31.7741 71.7518C32.0092 71.7518 32.2312 71.7087 32.4398 71.6203C32.6489 71.5321 32.8534 71.4028 33.0534 71.2355C33.6454 71.6655 34.2198 71.8809 34.7765 71.8809C35.3161 71.8809 35.8428 71.6655 36.356 71.2355C36.7912 71.6655 37.1916 71.8809 37.557 71.8809C37.7572 71.8809 37.9507 71.8262 38.138 71.7159C38.3249 71.606 38.5275 71.4459 38.7448 71.2355Z" fill="#FEFEFE"/>
<path d="M46.449 15.5166C46.4645 15.5081 46.4821 15.5016 46.5011 15.4974C46.5203 15.4931 46.5415 15.491 46.5645 15.491C46.703 15.491 46.8338 15.5565 46.9568 15.6883C47.0801 15.8196 47.1644 15.9869 47.2107 16.1906C47.2262 16.2838 47.2377 16.3517 47.2453 16.3944C47.2531 16.4366 47.2569 16.4792 47.2569 16.5214C47.2569 16.886 47.1337 17.115 46.8875 17.2079H46.7606C46.6221 17.2079 46.4916 17.1443 46.3686 17.013C46.2453 16.8835 46.1569 16.716 46.103 16.5151L46.0682 16.2118C46.0682 15.8153 46.1952 15.5843 46.449 15.5166ZM48.98 18.3444C49.0726 18.5222 49.1512 18.7383 49.2204 18.993C49.2897 19.2473 49.359 19.4933 49.4263 19.731C49.5261 19.9091 49.5761 20.0783 49.5761 20.2397C49.5761 20.4007 49.5359 20.4808 49.4533 20.4808C49.3936 20.4808 49.3283 20.4324 49.257 20.3349C49.186 20.2369 49.1493 20.1419 49.1493 20.049V19.7945C49.0879 19.5993 49.0241 19.4253 48.9591 19.2726C48.8936 19.12 48.8032 18.9211 48.6877 18.675C48.6492 18.5986 48.5413 18.4843 48.3645 18.3315C48.1569 18.1537 48.0301 18.0306 47.984 17.9629C48.0683 18.2002 48.2298 18.6497 48.4685 19.3112C48.5453 19.5397 48.6222 19.7136 48.6994 19.8324C48.8224 20.0278 48.8936 20.3964 48.9126 20.939C48.932 21.4817 48.9667 21.8482 49.0166 22.0392C49.0667 22.2299 49.4166 22.4568 50.0666 22.7199C50.7167 22.9822 51.0417 23.1395 51.0417 23.1903V24.144C51.0417 24.2462 50.9803 24.2968 50.8571 24.2968C50.7648 24.2968 50.7148 24.2502 50.7072 24.1569L50.6264 23.4827C50.6264 23.466 50.2937 23.3494 49.6282 23.1331C48.9627 22.917 48.6108 22.7832 48.5723 22.7326C48.5031 22.6562 48.4205 22.4908 48.3243 22.2361C48.2281 21.9818 48.1262 21.6769 48.0186 21.3205C47.9721 21.5157 47.9068 21.7528 47.8223 22.0329C47.6301 22.6434 47.5339 22.9822 47.5339 23.0504C47.5492 23.2456 47.5762 23.6292 47.6147 24.2033C47.653 24.7779 47.6723 25.1532 47.6723 25.3291C47.6723 25.4137 47.6703 25.4692 47.6664 25.4985C47.6628 25.5285 47.653 25.5559 47.6377 25.5817H46.6569C46.5569 25.5817 46.5069 25.5243 46.5069 25.4094C46.5069 25.3124 46.5415 25.2635 46.6105 25.2635L47.2224 25.2128C47.2224 24.9413 47.1836 24.6106 47.1069 24.2205C47.0299 23.8307 46.9493 23.4276 46.8646 23.0122C46.8646 22.7661 46.922 22.393 47.0375 21.8927C47.276 20.8415 47.4031 20.2859 47.4184 20.2268C47.1568 19.5993 46.9992 19.2135 46.9454 19.0696C46.8913 18.9253 46.853 18.7554 46.8299 18.5605C46.8068 18.6284 46.772 18.7915 46.7259 19.0505C46.6799 19.3088 46.6297 19.4744 46.5761 19.5463C46.5223 19.6185 46.3318 19.682 46.0049 19.737C45.6778 19.7921 45.4741 19.8388 45.3933 19.8769C45.3124 19.9153 45.2318 19.9449 45.1509 19.9658C45.0703 19.9873 45.0031 19.9977 44.949 19.9977C44.8182 19.9977 44.7529 19.9555 44.7529 19.8707C44.7529 19.7945 44.8048 19.7223 44.9088 19.6546C45.0126 19.5869 45.1605 19.5526 45.3529 19.5526C45.4608 19.5526 45.6259 19.5018 45.8493 19.3998C45.9876 19.3321 46.1337 19.2513 46.2875 19.1587C46.3184 18.8618 46.3513 18.5667 46.3857 18.2743C46.4202 17.9819 46.4857 17.7848 46.5818 17.6831C46.678 17.5811 46.8222 17.4796 47.0146 17.3775C47.2606 17.2508 47.4762 17.187 47.6608 17.187C47.8145 17.187 48.0396 17.3099 48.3377 17.5558C48.6356 17.8016 48.8493 18.0646 48.98 18.3444ZM48.307 25.5175C47.9762 25.4332 47.8106 25.2106 47.8106 24.8501V24.6699C47.8493 24.5002 47.928 24.3625 48.0434 24.2607C48.1609 24.1569 48.2955 24.1061 48.4512 24.1061H48.5915C48.7455 24.1483 48.8705 24.2331 48.9627 24.3603C49.0568 24.4878 49.1033 24.6363 49.1033 24.8055V24.9711C49.0107 25.3357 48.7954 25.5175 48.4571 25.5175H48.307Z" fill="#FEFEFE"/>
<path d="M16.2629 43.4351C16.2629 43.3076 16.3243 43.1975 16.4474 43.1041C16.5706 43.0107 16.7204 42.9516 16.8975 42.9261H17.0474C17.2012 42.9261 17.3358 42.9642 17.4512 43.0386C17.5666 43.1148 17.6246 43.2018 17.6246 43.3012C17.6246 43.4199 17.5666 43.5242 17.4512 43.6151C17.3358 43.7082 17.1821 43.7654 16.9898 43.7914H16.8629C16.6937 43.7914 16.5552 43.7611 16.4474 43.7001C16.3397 43.6384 16.2783 43.5493 16.2629 43.4351ZM14.705 36.836C14.6202 36.677 14.5781 36.5605 14.5781 36.486C14.5781 36.469 14.5838 36.4567 14.5954 36.4481C14.6069 36.4394 14.6202 36.4312 14.6359 36.4225C14.7204 36.4225 14.857 36.505 15.0456 36.6707C15.2338 36.836 15.4126 37.033 15.5819 37.2598C15.9512 37.5059 16.3974 37.845 16.9205 38.2754C17.3744 38.6483 17.7668 38.9853 18.0974 39.2906C18.2747 39.4579 18.4515 39.6234 18.6284 39.7848C18.7899 39.6828 19.0418 39.5978 19.3842 39.5301C19.7264 39.4621 20.1053 39.3899 20.5208 39.3136C20.2977 39.1275 20.1092 38.945 19.9554 38.7673C19.6784 38.3854 19.4244 38.0549 19.1937 37.7749C19.1399 37.7067 19.0783 37.6732 19.0091 37.6732H18.9631C18.909 37.6477 18.8745 37.6265 18.8591 37.6097L18.3975 36.806C18.3054 36.6363 18.2589 36.5265 18.2589 36.4755C18.2823 36.4413 18.3015 36.4225 18.3168 36.4225C18.4014 36.4225 18.559 36.5324 18.7936 36.7488C19.0264 36.9654 19.2052 37.1792 19.3282 37.391C19.8112 37.773 20.236 38.1503 20.6036 38.5234C21.0554 38.9729 21.2824 39.282 21.2824 39.4519V39.5153C21.0727 39.8036 20.7266 40.0369 20.2439 40.2147C19.84 40.3589 19.4361 40.4993 19.0323 40.6346V40.7111C19.0705 40.9906 19.1073 41.264 19.1418 41.5313C19.1765 41.7982 19.1937 42.0338 19.1937 42.2374C19.1937 42.5677 19.1514 42.8877 19.0668 43.1975C18.9843 43.5073 18.8359 43.804 18.6284 44.0835V44.3762C18.6284 44.5287 18.6493 44.9569 18.6937 45.6606C18.7112 45.9404 18.7207 46.1994 18.7207 46.4363C18.7207 46.6908 18.7012 46.9456 18.6628 47.1996C18.6628 47.3097 18.6284 47.3652 18.559 47.3652H17.9245C17.8857 47.3652 17.855 47.3612 17.8322 47.3524C17.809 47.3437 17.7861 47.3312 17.7629 47.314C17.809 47.2804 17.8514 47.2589 17.8898 47.2506C18.0131 47.2082 18.1745 47.1867 18.3744 47.1867C18.3054 46.8734 18.2168 46.1082 18.1091 44.8955C18.0631 44.3845 18.0245 44.0967 17.9936 44.0285C17.8784 43.7826 17.8207 43.5579 17.8207 43.3546C17.8207 43.1741 17.9015 42.8518 18.0631 42.3856C18.14 42.1655 18.1783 41.9912 18.1783 41.8639V41.6858C18.1612 41.6247 18.0974 41.4892 17.9878 41.2766C17.8765 41.0647 17.8207 40.8786 17.8207 40.7173C17.8207 40.5903 17.8475 40.4628 17.9015 40.3355C17.6553 40.1153 17.4205 39.861 17.1974 39.577C16.9745 39.2929 16.7935 39.0319 16.6554 38.7946C16.1705 38.4362 15.9091 38.2413 15.8703 38.2072C15.7318 38.0802 15.5819 37.915 15.4204 37.7111C15.3973 37.7027 15.3686 37.6966 15.3338 37.6922C15.2991 37.688 15.2704 37.6818 15.2472 37.6732C15.1936 37.6732 15.155 37.6563 15.132 37.6221L14.705 36.836Z" fill="#FEFEFE"/>
<path fill-rule="evenodd" clip-rule="evenodd" d="M11.6443 53.8202C11.5559 53.8202 11.4839 53.894 11.4839 53.9849C11.4839 54.0761 11.5559 54.15 11.6443 54.15C11.7332 54.15 11.8052 54.0761 11.8052 53.9849C11.8052 53.894 11.7332 53.8202 11.6443 53.8202Z" fill="#FEFEFE"/>
<path fill-rule="evenodd" clip-rule="evenodd" d="M13.5966 55.8539C13.6685 55.8539 13.7266 55.9185 13.7266 55.9973C13.7266 56.0761 13.6685 56.1402 13.5966 56.1402C13.5247 56.1402 13.4668 56.0761 13.4668 55.9973C13.4668 55.9185 13.5247 55.8539 13.5966 55.8539Z" fill="#FEFEFE"/>
<path fill-rule="evenodd" clip-rule="evenodd" d="M13.7185 51.8699C13.7902 51.8699 13.8483 51.9341 13.8483 52.0131C13.8483 52.0919 13.7902 52.1562 13.7185 52.1562C13.6467 52.1562 13.5884 52.0919 13.5884 52.0131C13.5884 51.9341 13.6467 51.8699 13.7185 51.8699Z" fill="#FEFEFE"/>
<path fill-rule="evenodd" clip-rule="evenodd" d="M11.7813 51.0626C11.8532 51.0626 11.9113 51.127 11.9113 51.2062C11.9113 51.2852 11.8532 51.3491 11.7813 51.3491C11.7095 51.3491 11.6514 51.2852 11.6514 51.2062C11.6514 51.127 11.7095 51.0626 11.7813 51.0626Z" fill="#FEFEFE"/>
<path fill-rule="evenodd" clip-rule="evenodd" d="M9.8596 55.5345C9.93135 55.5345 9.98971 55.599 9.98971 55.6779C9.98971 55.7572 9.93135 55.8212 9.8596 55.8212C9.78786 55.8212 9.72949 55.7572 9.72949 55.6779C9.72949 55.599 9.78786 55.5345 9.8596 55.5345Z" fill="#FEFEFE"/>
<path fill-rule="evenodd" clip-rule="evenodd" d="M11.7663 56.426C11.8381 56.426 11.8965 56.49 11.8965 56.569C11.8965 56.6479 11.8381 56.712 11.7663 56.712C11.6943 56.712 11.6362 56.6479 11.6362 56.569C11.6362 56.49 11.6943 56.426 11.7663 56.426Z" fill="#FEFEFE"/>
<path fill-rule="evenodd" clip-rule="evenodd" d="M9.84437 51.9205C9.91594 51.9205 9.9743 51.9844 9.9743 52.0634C9.9743 52.1422 9.91594 52.2066 9.84437 52.2066C9.77263 52.2066 9.71436 52.1422 9.71436 52.0634C9.71436 51.9844 9.77263 51.9205 9.84437 51.9205Z" fill="#FEFEFE"/>
<path fill-rule="evenodd" clip-rule="evenodd" d="M30.324 20.1835C30.2998 20.0611 30.3 20.1123 30.3941 20.0637C30.3681 20.2835 30.4044 20.0291 30.324 20.1835ZM29.9266 19.9269C29.9234 20.3363 29.8177 20.6749 29.5018 20.9197C28.6435 21.5844 28.5843 19.8833 29.0834 19.517C29.2648 19.3836 29.4435 19.1991 29.7325 19.3202C29.8961 19.3893 29.9282 19.7251 29.9266 19.9269ZM30.5326 19.6214C30.5443 19.4868 30.5218 19.5378 30.5956 19.4744C30.5947 19.5208 30.6114 19.5016 30.5929 19.5492C30.5672 19.6143 30.5863 19.5695 30.5326 19.6214ZM28.4301 20.0087C28.4279 19.9267 28.4193 19.9618 28.4504 19.9048C28.4511 19.9053 28.4936 19.8964 28.4803 19.9632C28.4653 20.0385 28.4656 19.9677 28.4301 20.0087ZM30.6883 19.4208C30.6475 19.2971 30.679 19.3769 30.6888 19.335C30.6911 19.34 30.7062 19.3321 30.7028 19.3788C30.7024 19.3853 30.6883 19.4205 30.6883 19.4208ZM30.1121 19.2825C30.0939 19.1444 30.0656 19.0734 30.0101 18.9759C30.0347 18.9082 30.0631 18.8407 30.1688 18.8388C30.1604 19.0109 30.111 19.101 30.1534 19.3159C30.4313 19.1866 30.1746 18.826 30.3811 18.6908C30.3346 18.8227 30.2758 19.0214 30.3618 19.1674C30.4963 19.1877 30.4563 19.1271 30.5441 19.0933C30.6383 19.0564 30.657 19.1131 30.7209 18.9565C30.8094 18.7392 30.7324 18.5939 30.6155 18.4828C30.4429 18.5279 30.5354 18.5769 30.3837 18.5836C30.2685 18.5884 30.2425 18.652 30.2112 18.7411C29.9046 18.7216 30.0754 18.7878 29.8187 18.9773L29.8282 19.1965L29.6332 19.1761L29.6973 19.0738C29.7187 19.0416 29.7074 19.0638 29.7266 19.0261C29.744 18.9926 29.7318 19.0078 29.7481 18.9733C29.8144 18.8312 29.8559 18.8953 29.7907 18.7362C29.5598 18.7016 29.5639 18.83 29.427 18.9061C29.416 18.7629 29.4925 18.785 29.6106 18.7149C29.9094 18.5377 29.7535 18.3353 29.4705 18.5881C29.3509 18.6947 29.4121 18.7381 29.258 18.724C29.2621 18.5317 29.3835 18.3229 29.5883 18.29C29.5515 18.3782 29.558 18.3508 29.5907 18.4178C29.6562 18.3877 29.6649 18.407 29.6791 18.3243C29.7388 17.9857 29.0486 18.3384 29.1968 18.8028L29.3256 18.8445C29.3191 18.9117 29.3207 18.9928 29.317 19.0516C29.3044 19.2535 29.3101 19.0814 29.3672 19.2166L28.9535 19.4015C28.9912 19.2414 29.2624 19.1355 29.1838 18.9644C29.1542 18.9349 29.1116 18.9602 29.0813 18.9844C28.9871 19.0588 28.9488 19.2178 28.8556 19.2942C28.8402 19.0128 29.0203 19.013 29.1129 18.83C29.1062 18.6599 29.1195 18.8391 29.0898 18.7655C29.0156 18.5825 29.1004 18.6804 29.0219 18.5415C28.754 18.6294 28.6865 18.9861 28.621 19.054C28.5745 18.9928 28.6028 18.8777 28.6284 18.7915C28.6591 18.6887 28.6802 18.6329 28.7873 18.5867C28.8375 18.5314 28.7242 18.5738 28.7987 18.5914C28.8924 18.6141 28.9101 18.5433 28.8446 18.4907C28.6093 18.4128 28.4425 18.9542 28.5287 19.1086C28.6171 19.2666 28.7231 19.0202 28.7706 19.1974C28.8059 19.3286 28.7036 19.2553 28.6111 19.2551C28.4755 19.2544 28.599 19.2845 28.4775 19.1832C28.3627 19.2246 28.3439 19.2988 28.3149 19.4067C28.2266 19.3736 28.2733 19.3586 28.1853 19.3629C28.054 19.5552 28.2273 19.4098 27.9862 19.5757C27.9565 19.8318 27.9616 20.0764 28.2053 20.1355C28.3043 20.1593 28.245 20.1476 28.3149 20.1171C28.4786 20.0461 28.4353 20.1664 28.5873 20.0442C28.6908 19.9606 28.5985 19.9941 28.7166 19.9384C28.7149 20.2325 28.5633 20.4703 28.7297 20.8406C29.0622 21.5786 29.7464 20.97 29.9388 20.5549C30.1134 20.1781 29.945 19.9179 30.2665 19.9107C30.3156 19.9095 30.3022 19.9093 30.3311 19.9198C30.2876 20.0153 30.1528 20.0654 30.2555 20.2801C30.3617 20.2915 30.3604 20.2486 30.4641 20.3075C30.55 20.3569 30.5763 20.3663 30.7071 20.3363C30.9678 19.875 30.5834 19.9129 30.3454 19.813C30.2018 19.753 30.1911 19.8336 30.073 19.885C30.0523 19.7329 30.0648 19.8776 30.0879 19.8133L30.1647 19.6009C30.2196 19.5006 30.2609 19.4692 30.3389 19.3807C30.324 19.4458 30.2672 19.5916 30.2795 19.6621C30.2982 19.7685 30.2996 19.7577 30.4559 19.7682C30.5238 19.7727 30.5236 19.779 30.5951 19.7737C30.6315 19.7191 30.6563 19.6469 30.6864 19.5733C30.7562 19.6586 30.6898 19.6372 30.7819 19.705L30.8784 19.622C31.1609 19.3488 30.7858 19.1603 30.6505 19.2208C30.5616 19.2606 30.5947 19.2923 30.4816 19.2813C30.3982 19.2728 30.3735 19.2337 30.2767 19.2914C30.1917 19.3422 30.0708 19.522 30.0499 19.5802C30.0056 19.4999 29.9602 19.4385 29.9528 19.3347C30.0399 19.3548 30.067 19.338 30.1121 19.2825ZM28.743 19.8329C28.7702 19.6877 28.8158 19.581 28.802 19.3996C28.8314 19.4294 28.8033 19.3933 28.8435 19.4528L28.896 19.5349C28.8965 19.5311 28.9036 19.544 28.9068 19.5492C28.8541 19.6522 28.8217 19.7439 28.743 19.8329ZM28.5635 19.8409C28.5313 19.69 28.5501 19.5883 28.5933 19.4825C28.6171 19.6517 28.6504 19.731 28.5635 19.8409ZM28.1116 19.9904C28.0269 19.8752 28.0247 19.7596 28.0814 19.6448L28.1116 19.9904ZM28.2334 19.7199C28.2252 19.5926 28.1659 19.6738 28.2137 19.4772C28.3575 19.5723 28.2855 19.8185 28.247 19.8854C28.2148 19.9417 28.25 19.8905 28.1969 19.9415C28.1683 19.8078 28.2399 19.819 28.2334 19.7199ZM30.0012 19.1172C30.0165 19.2051 30.0293 19.1441 29.9952 19.2166C29.9703 19.1665 29.9796 19.1684 30.0012 19.1172ZM28.4012 19.7408C28.3748 19.5637 28.3903 19.4043 28.4656 19.293C28.5306 19.3855 28.4461 19.6617 28.4012 19.7408ZM30.5143 18.7135C30.5415 18.676 30.5625 18.6298 30.6176 18.6099C30.7127 18.7817 30.6394 18.8808 30.5824 18.975C30.5238 18.9005 30.545 18.8374 30.5143 18.7135Z" fill="#FEFEFE"/>
<path fill-rule="evenodd" clip-rule="evenodd" d="M29.6658 22.9986L29.7761 23.2744C29.6734 23.2577 29.5956 23.1903 29.4847 23.165L29.5718 23.0731C29.6136 23.0411 29.628 23.0299 29.6658 22.9986ZM29.2254 22.9136C29.2136 22.9408 29.1712 22.941 29.2449 23.0288C29.3993 22.9932 29.377 22.9463 29.4979 22.9015C29.4772 22.9405 29.4604 22.9548 29.4373 22.9982C29.4181 23.0342 29.4367 23.0035 29.4172 23.0485C29.3928 23.1059 29.4166 23.0702 29.3827 23.1157C29.2132 23.0182 28.9904 23.0227 28.8714 22.9592C28.9331 22.8967 28.9375 22.9548 29.0173 22.9177C29.0621 22.8972 29.0716 22.8531 29.1453 22.828C29.1426 22.8338 29.0888 22.8322 29.1433 22.8929C29.1825 22.9365 29.1224 22.9255 29.2254 22.9136ZM28.1562 23.0438C28.164 23.0142 28.1562 23.0111 28.1825 22.9894C28.2301 22.9503 28.1996 22.9768 28.2312 22.9637L28.1562 23.0438ZM27.9136 23.0513C27.9521 22.9143 27.948 22.8957 28.0978 22.8498L27.9136 23.0513ZM29.4922 22.4053C29.5207 22.5092 29.6079 22.6741 29.5712 22.7678C29.5158 22.7623 29.5483 22.7919 29.5299 22.7415L29.521 22.6839C29.5193 22.678 29.5163 22.6705 29.5145 22.6639C29.4973 22.5988 29.5188 22.7024 29.5006 22.6236L29.4799 22.5178L29.3595 22.5423C29.4583 22.422 29.3976 22.4697 29.4922 22.4053ZM29.2938 21.8639C29.3359 21.8419 29.3234 21.8599 29.3489 21.8601L29.4728 22.3656C29.3319 22.3467 29.3247 22.432 29.2017 22.4952C29.2817 22.4101 29.3714 22.3689 29.4112 22.2361C29.3375 22.1915 29.3509 22.2063 29.2612 22.2285C29.3005 22.2009 29.3292 22.1561 29.3639 22.1265C29.3206 22.04 29.3625 22.076 29.2817 22.0247C29.2056 21.9766 29.2042 22.0195 29.1868 21.989C29.1814 21.9795 29.1719 21.9862 29.1643 21.9837L29.2938 21.8639ZM28.2909 22.5874C28.4515 22.4775 28.7128 22.2199 28.97 22.0395L28.3542 22.6477C28.3229 22.6234 28.3124 22.6105 28.2909 22.5874ZM28.323 22.2464C28.5213 22.2693 28.4067 22.2386 28.6971 22.0431C28.6036 22.1439 28.4865 22.2559 28.3884 22.3653C28.3282 22.4317 28.2735 22.4675 28.2327 22.5238C28.1598 22.6239 28.2249 22.5648 28.1877 22.6265C28.1663 22.662 28.1354 22.6749 28.0964 22.6939C28.1672 22.5486 28.2699 22.3972 28.323 22.2464ZM29.1235 21.7381C29.2514 21.6352 29.1947 21.6337 29.1416 21.5524C29.1898 21.5007 29.1444 21.5496 29.1716 21.4993C29.1734 21.496 29.1803 21.4909 29.1805 21.4819C29.1808 21.4731 29.1861 21.4705 29.1911 21.4633L29.2916 21.704L28.8577 21.9964C28.9122 21.9328 28.9499 21.8887 29.0214 21.8231C29.0613 21.7862 29.0808 21.7716 29.1235 21.7381ZM27.7691 23.191C27.868 23.231 28.6197 23.0431 28.9298 23.1216C29.1044 23.1662 29.2473 23.1929 29.4069 23.2561C29.569 23.3197 29.737 23.4631 29.8488 23.4774L29.9273 23.381C29.9073 23.2472 29.7707 22.9365 29.7199 22.775C29.6542 22.566 29.5928 22.3386 29.5342 22.1248C29.4669 21.8796 29.4215 21.7212 29.3335 21.4948C29.278 21.3525 29.2715 21.3408 29.1276 21.3484C28.8283 21.3641 28.8932 21.3682 28.5392 21.8355L28.2368 22.2531C28.1374 22.402 28.0787 22.5614 27.9808 22.7056C27.9125 22.8066 27.7278 23.0773 27.7691 23.191Z" fill="#FEFEFE"/>
<path fill-rule="evenodd" clip-rule="evenodd" d="M24.6156 21.3346C24.5736 21.2483 24.5787 21.0713 24.5734 20.9617C24.6878 20.9805 24.8528 21.0918 24.9289 21.1966C24.9081 21.2202 24.9232 21.2112 24.883 21.2355L24.6156 21.3346ZM25.4246 20.9433C25.4214 20.949 25.4125 20.9493 25.4121 20.9588C25.4106 20.9762 25.3548 20.9877 25.3403 21.1091C25.3137 21.3367 25.3498 21.3973 24.9738 21.5743C24.6061 21.7474 24.6539 21.6535 24.4225 21.6261C24.3149 21.6132 24.2976 21.6818 24.3093 21.4328C24.4048 21.4435 24.3468 21.4328 24.4082 21.4814C24.4625 21.5243 24.5038 21.6089 24.6997 21.5757C24.821 21.5553 25.0207 21.4501 25.1063 21.3739C25.4825 21.0396 25.0501 20.8347 25.2441 20.8425C25.2869 20.8439 25.3898 20.9099 25.4246 20.9433ZM24.4791 21.0472C24.3626 21.0836 24.2615 21.1127 24.2368 20.9655C24.2167 20.8468 24.2822 20.8005 24.3788 20.7754C24.4945 20.8464 24.5185 20.8959 24.4791 21.0472ZM24.6005 20.6376C24.6437 20.6046 24.6982 20.5713 24.7629 20.5525L24.842 20.6142C24.8798 20.7422 24.8999 20.8591 24.7499 20.8689C24.639 20.8764 24.6083 20.7553 24.6005 20.6376ZM25.5331 21.2281C25.5785 20.6964 25.1824 20.3667 24.8398 20.3494C24.723 20.3435 24.5497 20.3766 24.4709 20.4212C24.2935 20.5198 24.0422 20.9114 24.0109 21.1163C23.8217 22.3498 25.4518 22.172 25.5331 21.2281Z" fill="#FEFEFE"/>
<path fill-rule="evenodd" clip-rule="evenodd" d="M26.1674 24.8096C26.1666 24.7578 26.1731 24.7276 26.1872 24.6804C26.216 24.5851 26.1888 24.6397 26.2445 24.5748L26.2975 24.7404L26.1674 24.8096ZM25.9273 25.0705C25.9965 25.0777 26.3782 24.8562 26.4497 24.784C26.388 24.5863 26.1961 24.337 26.1827 24.0844L26.5208 24.0055L26.7438 24.6627C26.8294 24.6885 26.8516 24.6479 26.8715 24.6385C26.9167 24.6177 26.9669 24.6053 26.9807 24.5944C27.0583 24.5312 26.9835 24.4883 27.0823 24.4676C27.0823 24.4676 27.1549 24.4683 27.177 24.4642C27.1698 24.4206 26.9321 23.5287 26.8713 23.4708C26.8177 23.42 26.5648 23.3468 26.4849 23.3232C26.2735 23.2603 26.3127 23.1605 26.1144 23.393C26.0286 23.4938 25.6562 23.995 25.6318 24.0663C25.5879 24.1952 25.7029 24.4351 25.7632 24.5529C25.8564 24.7348 25.8623 24.9015 25.9273 25.0705Z" fill="#FEFEFE"/>
<path fill-rule="evenodd" clip-rule="evenodd" d="M25.7433 23.4043L25.8002 23.5013L25.6867 23.6624L25.7433 23.4043ZM25.8927 23.3378L25.9617 23.0859C25.9859 23.2132 25.9729 23.2675 25.8927 23.3378ZM25.4921 23.9381C25.4517 23.8277 25.3724 23.6608 25.3725 23.5563C25.4863 23.5746 25.3151 23.629 25.5133 23.5675L25.6686 22.9739C25.6567 23.3314 25.549 23.5725 25.5336 23.7451C25.5216 23.8799 25.5871 23.886 25.4921 23.9381ZM25.6186 22.1346L25.9782 22.7291C25.9104 22.7404 25.8903 22.6382 25.8145 22.7239C25.7801 22.5728 25.7637 22.6494 25.7349 22.5514C25.7167 22.4889 25.7276 22.4308 25.6917 22.3291C25.5354 22.3968 25.5205 22.6419 25.4662 22.8045C25.4442 22.8713 25.4344 22.9208 25.4035 22.9835C25.4234 22.743 25.5537 22.3829 25.6186 22.1346ZM25.2443 23.2498C25.1769 23.0702 25.1987 22.9908 25.3109 22.7575L25.3542 22.688C25.3427 22.8652 25.2546 23.109 25.2443 23.2498ZM25.1011 22.8314C25.0403 22.753 25.0591 22.7628 25.0946 22.6677L25.1642 22.5032C25.1514 22.6044 25.122 22.7068 25.1011 22.8314ZM25.5021 21.9735L25.5987 22.1251C25.3432 22.0427 25.3944 22.3741 25.2658 22.5652C25.2991 22.4322 25.3192 22.387 25.3681 22.2738C25.4735 22.0314 25.3905 22.0507 25.5021 21.9735ZM24.8963 22.4115C24.9319 22.3712 24.9594 22.3386 25.0137 22.3035L24.9605 22.5181L24.8963 22.4115ZM25.1088 22.2714C25.0807 22.1934 25.0842 22.2332 25.1516 22.2021C25.1395 22.3054 25.1467 22.2473 25.1088 22.2714ZM25.5252 24.2028C25.6002 24.1513 25.5401 24.1812 25.5898 24.0355C25.6086 23.9798 25.6393 23.9431 25.6697 23.8888C25.7371 23.7679 25.7674 23.7029 25.8504 23.588C26.0668 23.2906 25.957 23.3826 26.1877 23.2203L26.2538 23.1527C26.2689 23.135 26.2951 23.1064 26.3135 23.0857C26.2882 23.0082 26.2404 22.9189 26.1953 22.8414C26.1611 22.7837 26.1654 22.7973 26.1362 22.7333C26.0823 22.6157 26.1459 22.6939 26.0612 22.6177C25.9221 22.4935 25.883 22.3724 25.7723 22.2028C25.4444 21.7011 25.5779 21.765 25.0544 22.1575C24.7475 22.387 24.8347 22.402 25.1008 23.1115C25.1687 23.2925 25.226 23.5294 25.298 23.6735C25.3719 23.822 25.3989 23.9422 25.4413 24.0856C25.4817 24.2226 25.4298 24.1726 25.5252 24.2028Z" fill="#FEFEFE"/>
<path fill-rule="evenodd" clip-rule="evenodd" d="M28.8827 20.0812L29.0815 20.0409C29.0676 20.1577 29.0603 20.0943 29.0055 20.1896C28.9251 20.3299 28.9666 20.6319 29.0343 20.7863C29.187 20.8375 29.2633 20.8032 29.3578 20.6767C29.5045 20.4803 29.4551 20.4065 29.4988 20.3195C29.5867 20.3578 29.6211 20.3707 29.6594 20.4803C29.3863 20.7234 29.5649 20.6284 29.4257 20.7728C29.1818 21.0254 28.9007 20.9376 28.873 20.5032C28.8685 20.432 28.8782 20.0909 28.8827 20.0812ZM29.244 19.9685C29.2669 19.9203 29.4045 19.7025 29.4321 19.7009C29.4937 19.6963 29.5581 20.0395 29.5635 20.1176C29.4258 20.1331 29.3597 20.0461 29.244 19.9685ZM29.6548 19.5264C29.7129 19.5831 29.7365 19.7051 29.6395 19.7103C29.5298 19.7161 29.5569 19.5898 29.6548 19.5264ZM29.2581 19.5538C29.3288 19.2826 29.5932 19.5095 29.3548 19.6646C29.2921 19.6329 29.2942 19.6475 29.2581 19.5538ZM29.9266 19.927C29.9281 19.7251 29.896 19.3893 29.7324 19.3203C29.4434 19.1992 29.2647 19.3836 29.0834 19.5171C28.5842 19.8834 28.6434 21.5844 29.5018 20.9197C29.8176 20.675 29.9234 20.3364 29.9266 19.927Z" fill="#FEFEFE"/>
<path fill-rule="evenodd" clip-rule="evenodd" d="M25.5332 21.2281C25.4519 22.172 23.8218 22.3498 24.011 21.1163C24.0423 20.9114 24.2936 20.5199 24.471 20.4213C24.5498 20.3766 24.7231 20.3435 24.8399 20.3494C25.1826 20.3667 25.5787 20.6964 25.5332 21.2281ZM24.6998 19.4048C24.7344 19.528 24.7346 19.4799 24.7984 19.5552C24.7655 19.6339 24.769 19.6248 24.7095 19.6846C24.796 19.9095 24.7415 19.7051 24.7117 19.9006L24.8109 19.9832C24.7353 20.1169 24.6603 20.059 24.7551 20.2172C24.6038 20.2437 24.5365 20.2828 24.3893 20.2687L24.4253 19.9667L24.3346 19.8905C24.2722 19.7733 24.3936 19.7868 24.2211 19.7642C24.2466 19.7051 24.2929 19.6815 24.2555 19.6262C24.1721 19.5035 24.0328 19.8622 24.0378 19.9325C24.0453 19.9381 24.0279 19.9834 24.1849 19.9241L24.1736 20.0721L24.2964 20.0878C24.2179 20.4719 24.2391 20.2296 24.1091 20.4178C24.1366 20.5075 24.1643 20.4703 24.2241 20.4963C24.1528 20.5506 24.1474 20.564 24.1171 20.6409C24.0614 20.5961 24.1116 20.6562 24.0733 20.5885C24.0622 20.5694 24.0502 20.5282 24.043 20.5087L23.8884 20.5825C23.8831 20.4084 23.9022 20.3454 23.7241 20.4443C23.7256 20.3116 23.7801 20.2632 23.7185 20.1476C23.6277 20.1919 23.6201 20.355 23.6098 20.4612C23.589 20.6762 23.6493 20.6233 23.7888 20.5799C23.8078 20.6891 23.7821 20.7041 23.8391 20.803C23.923 20.7815 23.9364 20.7325 23.9848 20.7412C24.0415 20.9516 23.8354 20.9685 23.7228 21.0508C23.6997 20.9376 23.7146 20.9586 23.6547 20.8973C23.52 20.9519 23.5622 21.0093 23.4735 21.0997L23.414 20.9012C23.251 20.939 23.13 21.2834 23.3678 21.1082L23.4433 21.3043C23.5849 21.25 23.5164 21.2085 23.6205 21.1218L23.6696 21.1822C23.7315 21.2539 23.6337 21.2024 23.744 21.2514C23.8843 21.1616 23.7736 21.1223 23.9003 21.0801C23.8058 21.4757 23.9894 21.8653 24.3126 22.0455C24.7335 22.2805 25.9555 21.8758 25.5934 20.8127C25.5092 20.5652 25.2775 20.3676 25.063 20.2859C24.9054 20.2268 24.9588 20.2613 24.8736 20.1115L24.9402 19.9873C24.9019 19.917 24.9056 19.9112 24.8516 19.8814C24.8905 19.8276 24.9124 19.8247 24.961 19.7628C24.9322 19.6591 24.9337 19.7213 24.8704 19.6353C24.9357 19.5667 24.9287 19.6145 24.94 19.5123C24.8944 19.4589 24.9502 19.5173 24.8918 19.4732L24.8271 19.4263C24.8592 19.4101 24.8393 19.428 24.8799 19.4039L24.9443 19.3548C24.8535 19.2564 24.7886 19.3246 24.6998 19.4048Z" fill="#FEFEFE"/>
<path fill-rule="evenodd" clip-rule="evenodd" d="M30.8854 21.3315C31.0069 21.3089 31.0235 21.3634 31.0806 21.2907C31.0659 21.2408 31.0813 21.2324 31.0143 21.2174C30.9725 21.2083 30.9196 21.224 30.8709 21.2329L30.7475 21.2427C30.8458 21.0079 31.1282 20.9833 31.1928 20.9052C31.203 20.8797 31.2456 20.9395 31.1959 20.8363C31.1174 20.6745 30.7352 21.0723 30.676 21.0885C30.7138 21.0167 30.7111 20.8897 30.7533 20.786C30.8393 20.5742 30.952 20.7276 30.8697 20.492C30.7401 20.5106 30.6964 20.6507 30.6331 20.8351C30.5372 21.1142 30.5775 21.0941 30.5434 21.2295C30.5014 21.3959 30.03 21.4182 29.6674 21.6809C29.5441 21.7697 29.5098 21.7845 29.5481 21.9566C29.6637 21.9445 29.7504 21.8341 29.8803 21.769C30.0124 21.7026 30.5568 21.4485 30.6643 21.5169C30.7894 21.5977 30.7788 21.7186 30.9475 21.7333C30.9122 21.53 30.7909 21.5469 30.7215 21.4061L30.8854 21.3315Z" fill="#FEFEFE"/>
<path fill-rule="evenodd" clip-rule="evenodd" d="M25.8172 20.4746C25.6637 20.4486 25.6084 20.2746 25.4624 20.2877C25.4877 20.4789 25.6347 20.4686 25.7352 20.5825C25.8167 20.6738 25.8553 20.9186 25.8963 21.0646C25.9809 21.3658 25.9731 21.3505 25.8618 21.5386C25.7828 21.6723 25.5426 21.9618 25.8047 22.0441C25.8468 21.9907 25.9055 21.7833 25.946 21.6919C26.097 21.3496 26.0267 21.515 26.1511 21.3934L25.9783 20.669C26.0302 20.6287 26.0877 20.5816 26.1565 20.5465C26.285 20.4803 26.3054 20.5289 26.2987 20.396C26.18 20.3519 26.1258 20.4553 25.9949 20.5048C26.0114 20.2887 26.2239 20.2048 26.199 20.0511C26.1132 20.0175 26.0948 20.0726 26.049 20.1436C26.0057 20.2107 25.9679 20.2671 25.9294 20.3318L25.8421 19.8709C25.6691 19.943 25.8438 20.201 25.8172 20.4746Z" fill="#FEFEFE"/>
<path fill-rule="evenodd" clip-rule="evenodd" d="M23.6347 21.9824C23.4992 22.0366 23.3359 21.9227 23.2412 22.0071C23.2868 22.1306 23.367 22.0757 23.5954 22.1003C23.5318 22.24 23.262 22.3145 23.3625 22.4485C23.4367 22.5033 23.5125 22.2817 23.738 22.178C23.8423 22.2529 24.2376 22.8167 24.7105 22.7239C24.8108 22.7042 24.8233 22.7025 24.8447 22.6148C24.7849 22.5388 24.8588 22.5855 24.7458 22.5583C24.4348 22.4833 24.202 22.4446 23.9019 22.106C23.7184 21.8985 23.9293 22.0483 23.7923 21.6106C23.748 21.4688 23.7458 21.4476 23.6269 21.4562C23.6414 21.5715 23.6465 21.551 23.6842 21.6502C23.7396 21.7957 23.7131 21.7414 23.7103 21.7889L23.7008 21.8374C23.6952 21.8337 23.6861 21.8205 23.6851 21.825C23.6728 21.8799 23.5237 21.5257 23.4166 21.5048C23.3519 21.6366 23.5244 21.7254 23.6347 21.9824Z" fill="#FEFEFE"/>
<path fill-rule="evenodd" clip-rule="evenodd" d="M26.4133 25.4786L26.3156 25.5334C26.2929 25.5096 26.3173 25.55 26.2762 25.488L26.2215 25.3728C26.1973 25.3133 26.1798 25.2718 26.1721 25.2169C26.24 25.2283 26.3726 25.3797 26.4133 25.4786ZM25.685 26.1577C25.816 26.1384 25.8144 26.0472 26.0151 25.9221C26.2406 25.7814 26.1455 25.7436 26.5714 25.5356C26.5249 25.3901 26.2691 25.1279 26.1794 25.0732C26.0425 25.1265 25.5875 25.9575 25.685 26.1577Z" fill="#FEFEFE"/>
<path fill-rule="evenodd" clip-rule="evenodd" d="M28.3771 20.4818C28.3632 20.3343 28.344 20.3648 28.3345 20.351C28.2694 20.3957 28.2926 20.3957 28.2432 20.4569C28.2439 20.5551 28.2119 20.6202 28.179 20.6995C28.0164 20.5788 28.1074 20.2497 27.9088 20.2744L28.037 20.7789C27.7686 20.762 27.6809 20.5611 27.564 20.5716C27.591 20.7889 27.8734 20.8077 27.975 20.9078C27.8995 20.9991 27.7146 21.0208 27.7791 21.1442C27.7851 21.1466 27.7939 21.1419 27.7987 21.1492L27.8595 21.1538C27.9762 21.1335 27.9375 21.0615 28.1135 21.0079C28.2355 21.2429 28.3894 21.4609 28.5379 21.6342C28.6172 21.6115 28.624 21.6132 28.6698 21.5498C28.6265 21.4791 28.4899 21.3931 28.2999 21.107C28.1233 20.8406 28.3632 20.6964 28.3771 20.4818Z" fill="#FEFEFE"/>
<path fill-rule="evenodd" clip-rule="evenodd" d="M27.2612 24.5745C27.2735 24.5919 27.2869 24.5484 27.2849 24.6184C27.2808 24.7569 27.2941 24.6291 27.2542 24.6961C27.2168 24.6191 27.1868 24.6191 27.2612 24.5745ZM26.8696 24.736C26.9131 24.8521 27.1779 25.0382 27.2504 25.0618C27.3719 24.8861 27.4722 24.72 27.6242 24.5456C27.6826 24.4787 27.7301 24.4517 27.774 24.3813L27.7005 24.2057C27.4148 24.2632 27.005 24.6505 26.8696 24.736Z" fill="#FEFEFE"/>
<path fill-rule="evenodd" clip-rule="evenodd" d="M29.6441 24.7636C29.7033 24.7103 29.7081 24.7215 29.7237 24.785C29.6666 24.7869 29.6824 24.7869 29.6441 24.7636ZM29.5881 25.5982C29.6826 25.5597 29.665 25.5224 29.6977 25.4043C29.7245 25.3084 29.7408 25.2817 29.779 25.1899C29.8047 25.1289 29.9591 24.7791 29.9621 24.7479C29.9144 24.6887 29.7727 24.631 29.6808 24.6192C29.3667 24.5775 29.3861 25.4533 29.5881 25.5982Z" fill="#FEFEFE"/>
<path fill-rule="evenodd" clip-rule="evenodd" d="M28.6782 25.2388C28.6804 25.1338 28.678 25.1466 28.7439 25.0757C28.7461 25.2116 28.7624 25.1869 28.6782 25.2388ZM29.0265 25.214C28.9774 25.1048 28.9928 25.1726 28.9467 25.0792C28.8581 24.9005 28.916 24.7557 28.6222 24.9134C28.3675 25.05 28.0382 26.0572 28.5299 25.5538C28.7211 25.3583 28.751 25.3351 29.0265 25.214Z" fill="#FEFEFE"/>
<path fill-rule="evenodd" clip-rule="evenodd" d="M28.9556 23.2835C28.921 23.5613 29.3536 24.47 29.5099 24.6206C29.8009 24.4161 29.4488 24.3742 29.2045 23.5942C29.1684 23.4794 29.1486 23.3304 29.1019 23.2475C29.0758 23.2479 29.062 23.2446 29.0347 23.2513L28.9556 23.2835Z" fill="#FEFEFE"/>
<path fill-rule="evenodd" clip-rule="evenodd" d="M28.6309 24.7788C28.9235 24.6833 28.6457 24.5881 28.5271 24.0503C28.5017 23.935 28.4275 23.6981 28.4202 23.6076C28.4103 23.4796 28.5638 23.2505 28.3539 23.3095C28.2761 23.3311 28.2762 23.3705 28.2531 23.4553C28.2356 23.5184 28.2226 23.5673 28.2237 23.6367C28.2274 23.8282 28.5547 24.6345 28.6309 24.7788Z" fill="#FEFEFE"/>
<path fill-rule="evenodd" clip-rule="evenodd" d="M29.0057 20.1894C29.0605 20.0942 29.0678 20.1575 29.0817 20.0409L28.8829 20.0811C28.8785 20.0909 28.8687 20.4314 28.8733 20.5025C28.9009 20.9365 29.182 21.0241 29.4259 20.7718C29.5651 20.6276 29.3865 20.7225 29.6596 20.4797C29.6213 20.3703 29.587 20.3574 29.499 20.3191C29.4553 20.406 29.5047 20.4797 29.358 20.6759C29.2635 20.8022 29.1872 20.8365 29.0345 20.7853C28.9668 20.6311 28.9253 20.3295 29.0057 20.1894Z" fill="#FEFEFE"/>
<path fill-rule="evenodd" clip-rule="evenodd" d="M25.4121 20.9586C25.4125 20.9492 25.4214 20.9489 25.4246 20.9432C25.3898 20.9098 25.2869 20.844 25.2441 20.8425C25.0502 20.8347 25.4825 21.0394 25.1063 21.3732C25.0207 21.4494 24.821 21.5544 24.6997 21.5748C24.5038 21.6079 24.4625 21.5234 24.4083 21.4806C24.3469 21.4321 24.4048 21.4427 24.3093 21.4321C24.2976 21.6807 24.3149 21.6122 24.4225 21.6251C24.6539 21.6525 24.6061 21.7462 24.9739 21.5734C25.3499 21.3966 25.3138 21.3361 25.3404 21.1088C25.3548 20.9875 25.4106 20.976 25.4121 20.9586Z" fill="#FEFEFE"/>
<path fill-rule="evenodd" clip-rule="evenodd" d="M25.6189 22.1346C25.554 22.3825 25.4237 22.7422 25.4038 22.9823C25.4347 22.9198 25.4445 22.8703 25.4665 22.8036C25.5208 22.6412 25.5357 22.3964 25.692 22.3288C25.7279 22.4304 25.717 22.4885 25.7352 22.5508C25.764 22.6487 25.7804 22.5722 25.8148 22.7231C25.8906 22.6375 25.9107 22.7396 25.9785 22.7284L25.6189 22.1346Z" fill="#FEFEFE"/>
<path fill-rule="evenodd" clip-rule="evenodd" d="M29.2441 19.9688C29.3601 20.0466 29.4265 20.1337 29.5646 20.1182C29.5592 20.0399 29.4946 19.6963 29.4328 19.7008C29.405 19.7024 29.2671 19.9206 29.2441 19.9688Z" fill="#FEFEFE"/>
<path fill-rule="evenodd" clip-rule="evenodd" d="M24.7099 21.1894C24.6426 21.1851 24.7031 21.2075 24.6689 21.145C24.7172 21.0961 24.6834 21.0815 24.7705 21.1497C24.768 21.1528 24.7816 21.1941 24.7099 21.1894ZM24.616 21.3352L24.8842 21.236C24.9245 21.2115 24.9094 21.2206 24.9302 21.197C24.8538 21.092 24.6884 20.9806 24.5737 20.9617C24.579 21.0714 24.5739 21.2488 24.616 21.3352Z" fill="#FEFEFE"/>
<path fill-rule="evenodd" clip-rule="evenodd" d="M25.4922 23.9369C25.5871 23.8848 25.5216 23.8788 25.5336 23.7441C25.549 23.5718 25.6567 23.331 25.6686 22.9739L25.5134 23.5667C25.3151 23.6282 25.4863 23.5739 25.3726 23.5556C25.3724 23.6599 25.4517 23.8266 25.4922 23.9369Z" fill="#FEFEFE"/>
<path fill-rule="evenodd" clip-rule="evenodd" d="M24.6006 20.6377C24.6084 20.7556 24.6392 20.8769 24.7504 20.8694C24.9008 20.8596 24.8807 20.7425 24.8428 20.6143L24.7634 20.5525C24.6985 20.5714 24.6439 20.6048 24.6006 20.6377Z" fill="#FEFEFE"/>
<path fill-rule="evenodd" clip-rule="evenodd" d="M24.48 21.0476C24.5195 20.8961 24.4954 20.8465 24.3794 20.7754C24.2826 20.8006 24.2169 20.8469 24.237 20.9658C24.2618 21.1133 24.3632 21.0841 24.48 21.0476Z" fill="#FEFEFE"/>
<path fill-rule="evenodd" clip-rule="evenodd" d="M29.2252 22.9135C29.1221 22.9254 29.1822 22.9364 29.143 22.8928C29.0886 22.8322 29.1424 22.8338 29.145 22.828C29.0713 22.8531 29.0618 22.8971 29.017 22.9176C28.9372 22.9547 28.9329 22.8966 28.8711 22.959C28.9902 23.0225 29.2129 23.0179 29.3824 23.1153C29.4163 23.0698 29.3926 23.1056 29.417 23.0482C29.4364 23.0033 29.4179 23.0339 29.4371 22.998C29.4602 22.9547 29.4769 22.9404 29.4976 22.9014C29.3768 22.9461 29.399 22.993 29.2446 23.0285C29.1709 22.9409 29.2133 22.9407 29.2252 22.9135Z" fill="#FEFEFE"/>
<path fill-rule="evenodd" clip-rule="evenodd" d="M29.1641 21.9836C29.1716 21.986 29.1811 21.9793 29.1865 21.9888C29.204 22.0193 29.2054 21.9764 29.2815 22.0245C29.3623 22.0757 29.3203 22.0398 29.3636 22.1261C29.329 22.1557 29.3002 22.2004 29.2609 22.228C29.3506 22.2059 29.3372 22.1911 29.411 22.2356C29.3712 22.3682 29.2815 22.4093 29.2014 22.4943C29.3244 22.4313 29.3316 22.3461 29.4725 22.3649L29.3486 21.86C29.3231 21.8598 29.3357 21.8419 29.2935 21.8639L29.1641 21.9836Z" fill="#FEFEFE"/>
<path fill-rule="evenodd" clip-rule="evenodd" d="M28.3228 22.2461C28.2696 22.3967 28.1669 22.5479 28.0962 22.6931C28.1351 22.674 28.1661 22.6612 28.1875 22.6258C28.2247 22.5641 28.1596 22.6231 28.2324 22.5232C28.2733 22.4669 28.328 22.4312 28.3881 22.3648C28.4863 22.2556 28.6034 22.1438 28.6969 22.0431C28.4065 22.2383 28.5211 22.269 28.3228 22.2461Z" fill="#FEFEFE"/>
<path fill-rule="evenodd" clip-rule="evenodd" d="M28.2905 22.5867C28.3121 22.6098 28.3225 22.6226 28.3539 22.6469L28.9696 22.0395C28.7125 22.2197 28.4512 22.477 28.2905 22.5867Z" fill="#FEFEFE"/>
<path fill-rule="evenodd" clip-rule="evenodd" d="M29.142 21.5525C29.1953 21.6339 29.2522 21.6354 29.1239 21.7385C29.0811 21.7721 29.0616 21.7867 29.0215 21.8236C28.9498 21.8893 28.912 21.9335 28.8574 21.9972L29.2925 21.7043L29.1917 21.4633C29.1867 21.4705 29.1813 21.4731 29.1811 21.4819C29.1809 21.491 29.1739 21.496 29.1722 21.4993C29.1449 21.5497 29.1904 21.5007 29.142 21.5525Z" fill="#FEFEFE"/>
<path fill-rule="evenodd" clip-rule="evenodd" d="M30.1121 19.2832C30.1011 19.2854 30.0963 19.285 30.1191 19.2997C30.1215 19.3016 30.1308 19.3066 30.1334 19.3083C30.1369 19.3107 30.147 19.314 30.1535 19.3166C30.111 19.1014 30.1605 19.0112 30.1689 18.8388C30.0629 18.8407 30.0345 18.9083 30.0098 18.9761C30.0655 19.0737 30.0939 19.1449 30.1121 19.2832Z" fill="#FEFEFE"/>
<path fill-rule="evenodd" clip-rule="evenodd" d="M29.6661 22.9986C29.6281 23.0299 29.6137 23.0412 29.5718 23.0732L29.4844 23.1653C29.5956 23.1906 29.6737 23.2581 29.7767 23.2748L29.6661 22.9986Z" fill="#FEFEFE"/>
<path fill-rule="evenodd" clip-rule="evenodd" d="M30.5142 18.7137C30.5449 18.8378 30.5237 18.901 30.5825 18.9756C30.6397 18.8813 30.7132 18.782 30.6178 18.6099C30.5625 18.6299 30.5415 18.6762 30.5142 18.7137Z" fill="#FEFEFE"/>
<path fill-rule="evenodd" clip-rule="evenodd" d="M29.2583 19.554C29.2945 19.6478 29.2924 19.6332 29.3552 19.6649C29.5944 19.5096 29.3292 19.2824 29.2583 19.554Z" fill="#FEFEFE"/>
<path fill-rule="evenodd" clip-rule="evenodd" d="M26.3158 25.5345L26.4138 25.4796C26.373 25.3803 26.24 25.2285 26.1719 25.2171C26.1797 25.2722 26.1972 25.3137 26.2214 25.3734L26.2763 25.4889C26.3176 25.5512 26.293 25.5106 26.3158 25.5345Z" fill="#FEFEFE"/>
<path fill-rule="evenodd" clip-rule="evenodd" d="M28.1967 19.9423C28.2501 19.8911 28.2147 19.9425 28.247 19.8861C28.2856 19.8191 28.3578 19.5725 28.2136 19.4773C28.1657 19.6742 28.2251 19.5929 28.2334 19.7203C28.2399 19.8195 28.1681 19.8083 28.1967 19.9423Z" fill="#FEFEFE"/>
<path fill-rule="evenodd" clip-rule="evenodd" d="M25.2448 23.2507C25.2551 23.1096 25.3435 22.8654 25.3549 22.6879L25.3116 22.7576C25.1991 22.9912 25.1772 23.0707 25.2448 23.2507Z" fill="#FEFEFE"/>
<path fill-rule="evenodd" clip-rule="evenodd" d="M28.4012 19.7415C28.4462 19.6623 28.531 19.3856 28.4658 19.293C28.3903 19.4045 28.3747 19.5641 28.4012 19.7415Z" fill="#FEFEFE"/>
<path fill-rule="evenodd" clip-rule="evenodd" d="M28.7432 19.8335C28.8221 19.7444 28.8546 19.6526 28.9075 19.5495C28.9042 19.5442 28.8971 19.5313 28.8966 19.5352L28.844 19.4528C28.8036 19.3933 28.8318 19.4295 28.8024 19.3996C28.8162 19.5813 28.7705 19.6882 28.7432 19.8335Z" fill="#FEFEFE"/>
<path fill-rule="evenodd" clip-rule="evenodd" d="M29.5214 22.6843L29.5303 22.742C29.5487 22.7925 29.5161 22.7628 29.5717 22.7683C29.6085 22.6745 29.5211 22.5093 29.4925 22.4053C29.3976 22.4698 29.4585 22.422 29.3594 22.5425L29.4801 22.518L29.5009 22.6239C29.5192 22.7029 29.4975 22.5991 29.5149 22.6643C29.5166 22.6709 29.5196 22.6784 29.5214 22.6843Z" fill="#FEFEFE"/>
<path fill-rule="evenodd" clip-rule="evenodd" d="M25.5031 21.9735C25.3912 22.0509 25.4744 22.0315 25.3686 22.2743C25.3196 22.3877 25.2995 22.4329 25.2661 22.5661C25.395 22.3747 25.3437 22.0428 25.5999 22.1253L25.5031 21.9735Z" fill="#FEFEFE"/>
<path fill-rule="evenodd" clip-rule="evenodd" d="M29.6549 19.5264C29.5567 19.5899 29.5296 19.7165 29.6395 19.7107C29.7368 19.7055 29.7132 19.5832 29.6549 19.5264Z" fill="#FEFEFE"/>
<path fill-rule="evenodd" clip-rule="evenodd" d="M28.5636 19.8415C28.6508 19.7314 28.6173 19.6519 28.5935 19.4825C28.5502 19.5885 28.5313 19.6904 28.5636 19.8415Z" fill="#FEFEFE"/>
<path fill-rule="evenodd" clip-rule="evenodd" d="M26.167 24.8099L26.2975 24.7407L26.2444 24.5748C26.1885 24.6398 26.2158 24.5851 26.1869 24.6805C26.1728 24.7278 26.1663 24.7581 26.167 24.8099Z" fill="#FEFEFE"/>
<path fill-rule="evenodd" clip-rule="evenodd" d="M28.1115 19.9909L28.0812 19.6448C28.0244 19.7598 28.0266 19.8756 28.1115 19.9909Z" fill="#FEFEFE"/>
<path fill-rule="evenodd" clip-rule="evenodd" d="M30.8851 21.3318C30.9133 21.344 30.9541 21.3567 30.9985 21.357C31.1483 21.3579 31.078 21.3252 31.088 21.3049C31.1585 21.175 30.9138 21.1687 30.8706 21.233C30.9194 21.2241 30.9725 21.2084 31.0144 21.2175C31.0815 21.2325 31.0661 21.2409 31.0809 21.291C31.0236 21.3638 31.0069 21.3091 30.8851 21.3318Z" fill="#FEFEFE"/>
<path fill-rule="evenodd" clip-rule="evenodd" d="M24.8965 22.4117L24.9609 22.5185L25.0142 22.3035C24.9598 22.3387 24.9322 22.3714 24.8965 22.4117Z" fill="#FEFEFE"/>
<path fill-rule="evenodd" clip-rule="evenodd" d="M25.687 23.6627L25.8009 23.5014L25.7438 23.4043L25.687 23.6627Z" fill="#FEFEFE"/>
<path fill-rule="evenodd" clip-rule="evenodd" d="M25.1016 22.8318C25.1226 22.7071 25.1521 22.6045 25.1649 22.5032L25.0951 22.6679C25.0595 22.7631 25.0407 22.7534 25.1016 22.8318Z" fill="#FEFEFE"/>
<path fill-rule="evenodd" clip-rule="evenodd" d="M27.9136 23.0518L28.0983 22.8498C27.948 22.8958 27.9521 22.9145 27.9136 23.0518Z" fill="#FEFEFE"/>
<path fill-rule="evenodd" clip-rule="evenodd" d="M28.2432 20.4572C28.2926 20.3958 28.2694 20.3958 28.3347 20.351C28.3442 20.3649 28.3635 20.3343 28.3774 20.4821C28.4305 20.3808 28.3934 20.3612 28.3277 20.3123C28.2516 20.3524 28.2681 20.3533 28.2432 20.4572Z" fill="#FEFEFE"/>
<path fill-rule="evenodd" clip-rule="evenodd" d="M25.8931 23.3381C25.9735 23.2677 25.9865 23.2133 25.9622 23.0858L25.8931 23.3381Z" fill="#FEFEFE"/>
<path fill-rule="evenodd" clip-rule="evenodd" d="M28.6782 25.2404C28.7632 25.1881 28.7468 25.213 28.7446 25.076C28.678 25.1475 28.6804 25.1345 28.6782 25.2404Z" fill="#FEFEFE"/>
<path fill-rule="evenodd" clip-rule="evenodd" d="M24.6685 21.1452C24.7029 21.2085 24.642 21.1858 24.7097 21.1901C24.7819 21.1949 24.7682 21.1532 24.7708 21.15C24.683 21.0811 24.7171 21.0958 24.6685 21.1452Z" fill="#FEFEFE"/>
<path fill-rule="evenodd" clip-rule="evenodd" d="M27.2616 24.575C27.1865 24.6195 27.2168 24.6195 27.2546 24.6964C27.2948 24.6295 27.2814 24.7571 27.2856 24.6188C27.2876 24.5489 27.2741 24.5924 27.2616 24.575Z" fill="#FEFEFE"/>
<path fill-rule="evenodd" clip-rule="evenodd" d="M30.5327 19.6225C30.5869 19.5702 30.5677 19.6153 30.5936 19.5498C30.6123 19.5018 30.5954 19.5212 30.5963 19.4744C30.5218 19.5382 30.5445 19.4869 30.5327 19.6225Z" fill="#FEFEFE"/>
<path fill-rule="evenodd" clip-rule="evenodd" d="M30.3242 20.1832C30.4054 20.0293 30.3688 20.2828 30.395 20.0637C30.2999 20.1122 30.2997 20.0611 30.3242 20.1832Z" fill="#FEFEFE"/>
<path fill-rule="evenodd" clip-rule="evenodd" d="M28.4301 20.0084C28.4659 19.9675 28.4656 20.0381 28.4807 19.963C28.4942 19.8964 28.4512 19.9053 28.4505 19.9048C28.4191 19.9616 28.4278 19.9267 28.4301 20.0084Z" fill="#FEFEFE"/>
<path fill-rule="evenodd" clip-rule="evenodd" d="M29.644 24.7642C29.6827 24.7879 29.6667 24.7879 29.7244 24.786C29.7086 24.7216 29.7038 24.7102 29.644 24.7642Z" fill="#FEFEFE"/>
<path fill-rule="evenodd" clip-rule="evenodd" d="M25.1094 22.2735C25.1482 22.2487 25.1409 22.3085 25.1533 22.2021C25.084 22.2341 25.0804 22.1931 25.1094 22.2735Z" fill="#FEFEFE"/>
<path fill-rule="evenodd" clip-rule="evenodd" d="M29.9955 19.2163C30.03 19.144 30.0171 19.2048 30.0016 19.1172C29.9798 19.1683 29.9704 19.1664 29.9955 19.2163Z" fill="#FEFEFE"/>
<path fill-rule="evenodd" clip-rule="evenodd" d="M30.689 19.335C30.6791 19.3775 30.6473 19.2967 30.6886 19.4219C30.6886 19.4216 30.7028 19.3859 30.7031 19.3794C30.7066 19.3321 30.6914 19.34 30.689 19.335Z" fill="#FEFEFE"/>
<path fill-rule="evenodd" clip-rule="evenodd" d="M28.2315 22.9637C28.1996 22.9771 28.2304 22.95 28.1823 22.99C28.1558 23.0122 28.1636 23.0153 28.1558 23.0456L28.2315 22.9637Z" fill="#FEFEFE"/>
<path d="M63.4138 54.9225C63.4288 54.9502 63.4365 54.9803 63.4365 55.0119C63.4365 55.0818 63.4095 55.1327 63.3548 55.1675C63.3293 55.1818 63.3025 55.1894 63.2737 55.1894C63.2101 55.1894 63.1637 55.1596 63.1324 55.0989C63.1194 55.0732 63.1124 55.0443 63.1124 55.0119C63.1124 54.9426 63.1395 54.8916 63.1941 54.857C63.2177 54.8409 63.2438 54.832 63.2737 54.832C63.3362 54.832 63.3823 54.862 63.4138 54.9225ZM63.0297 54.6199C63.0532 54.6668 63.0653 54.7186 63.0653 54.7743C63.0653 54.8942 63.0184 54.9848 62.9233 55.0462C62.8806 55.0722 62.8338 55.0858 62.7831 55.0858C62.6742 55.0858 62.5931 55.0329 62.5391 54.9283C62.5139 54.8821 62.5011 54.8306 62.5011 54.7743C62.5011 54.6547 62.5488 54.5641 62.6437 54.5025C62.6872 54.4767 62.7341 54.4634 62.7831 54.4634C62.8939 54.4634 62.9756 54.5153 63.0297 54.6199ZM62.5 54.2167C62.5 54.6316 62.3666 54.9857 62.0999 55.28C61.8342 55.5727 61.5128 55.7194 61.1372 55.7194C60.7982 55.7194 60.5023 55.5987 60.2486 55.3565C59.9644 55.5254 59.6623 55.61 59.3423 55.61C59.122 55.61 58.9069 55.5674 58.697 55.4833C58.1647 55.2731 57.7907 54.8782 57.5764 54.2991C57.5548 54.2991 57.5453 54.2991 57.5486 54.2991C57.1732 54.2991 56.8518 54.1521 56.5851 53.8583C56.3192 53.5649 56.186 53.2111 56.186 52.7962C56.186 52.3822 56.3192 52.0279 56.5851 51.734C56.8518 51.4411 57.1732 51.2944 57.5486 51.2944C57.8878 51.2944 58.1837 51.4164 58.4374 51.659C58.7214 51.4915 59.0228 51.4064 59.3423 51.4064C59.564 51.4064 59.7783 51.4481 59.9862 51.5306C60.5204 51.742 60.894 52.1373 61.1087 52.7175C61.1312 52.7159 61.1407 52.7147 61.1372 52.7147C61.5128 52.7147 61.8342 52.8617 62.0999 53.1555C62.3666 53.4484 62.5 53.803 62.5 54.2167ZM56.4686 51.5765C56.4686 51.6621 56.4405 51.7362 56.3859 51.797C56.3307 51.8573 56.2645 51.8878 56.186 51.8878C56.1086 51.8878 56.0415 51.8573 55.9866 51.797C55.9318 51.7362 55.9037 51.6621 55.9037 51.5765C55.9037 51.4901 55.9318 51.4176 55.9866 51.357C56.0415 51.2965 56.1086 51.2656 56.186 51.2656C56.2645 51.2656 56.3307 51.2965 56.3859 51.357C56.4405 51.4176 56.4686 51.4901 56.4686 51.5765ZM55.9195 51.232C55.9195 51.3502 55.8665 51.4095 55.759 51.4095C55.6503 51.4095 55.5952 51.3502 55.5952 51.232C55.5952 51.1121 55.6503 51.0523 55.759 51.0523C55.8665 51.0523 55.9195 51.1121 55.9195 51.232ZM61.9257 54.2167C61.9257 53.9765 61.8483 53.7723 61.6933 53.604C61.5694 53.4646 61.4196 53.3822 61.2445 53.3564C61.2629 53.6507 61.227 53.9372 61.1355 54.2167C61.044 54.4962 60.9063 54.7427 60.7208 54.9559C60.8479 55.0424 60.9874 55.0858 61.1364 55.0858C61.3552 55.0858 61.5409 55.0012 61.6948 54.8311C61.8492 54.6611 61.9257 54.4564 61.9257 54.2167ZM57.9643 52.0579C57.8372 51.9714 57.6986 51.928 57.5486 51.928C57.331 51.928 57.1454 52.0129 56.9918 52.1828C56.8379 52.3527 56.7611 52.5574 56.7611 52.7974C56.7611 53.0364 56.8385 53.2416 56.9929 53.4126C57.1175 53.5492 57.2664 53.6307 57.4416 53.6577C57.4231 53.3631 57.4588 53.0754 57.5497 52.7974C57.641 52.5176 57.7788 52.2712 57.9643 52.0579Z" fill="#FEFEFE"/>
</svg>
